<?xml version='1.0' encoding='UTF-8'?>
<svg width="33mm" height="33mm" version="1.1" viewBox="0 0 33 33" xmlns="http://www.w3.org/2000/svg"><path d="M2,2H3V3H2zM3,2H4V3H3zM4,2H5V3H4zM5,2H6V3H5zM6,2H7V3H6zM7,2H8V3H7zM8,2H9V3H8zM10,2H11V3H10zM12,2H13V3H12zM14,2H15V3H14zM15,2H16V3H15zM17,2H18V3H17zM21,2H22V3H21zM22,2H23V3H22zM24,2H25V3H24zM25,2H26V3H25zM26,2H27V3H26zM27,2H28V3H27zM28,2H29V3H28zM29,2H30V3H29zM30,2H31V3H30zM2,3H3V4H2zM8,3H9V4H8zM10,3H11V4H10zM13,3H14V4H13zM15,3H16V4H15zM19,3H20V4H19zM20,3H21V4H20zM22,3H23V4H22zM24,3H25V4H24zM30,3H31V4H30zM2,4H3V5H2zM4,4H5V5H4zM5,4H6V5H5zM6,4H7V5H6zM8,4H9V5H8zM11,4H12V5H11zM12,4H13V5H12zM13,4H14V5H13zM17,4H18V5H17zM20,4H21V5H20zM21,4H22V5H21zM22,4H23V5H22zM24,4H25V5H24zM26,4H27V5H26zM27,4H28V5H27zM28,4H29V5H28zM30,4H31V5H30zM2,5H3V6H2zM4,5H5V6H4zM5,5H6V6H5zM6,5H7V6H6zM8,5H9V6H8zM10,5H11V6H10zM12,5H13V6H12zM16,5H17V6H16zM19,5H20V6H19zM22,5H23V6H22zM24,5H25V6H24zM26,5H27V6H26zM27,5H28V6H27zM28,5H29V6H28zM30,5H31V6H30zM2,6H3V7H2zM4,6H5V7H4zM5,6H6V7H5zM6,6H7V7H6zM8,6H9V7H8zM11,6H12V7H11zM12,6H13V7H12zM16,6H17V7H16zM17,6H18V7H17zM18,6H19V7H18zM19,6H20V7H19zM20,6H21V7H20zM21,6H22V7H21zM24,6H25V7H24zM26,6H27V7H26zM27,6H28V7H27zM28,6H29V7H28zM30,6H31V7H30zM2,7H3V8H2zM8,7H9V8H8zM11,7H12V8H11zM14,7H15V8H14zM15,7H16V8H15zM19,7H20V8H19zM21,7H22V8H21zM22,7H23V8H22zM24,7H25V8H24zM30,7H31V8H30zM2,8H3V9H2zM3,8H4V9H3zM4,8H5V9H4zM5,8H6V9H5zM6,8H7V9H6zM7,8H8V9H7zM8,8H9V9H8zM10,8H11V9H10zM12,8H13V9H12zM14,8H15V9H14zM16,8H17V9H16zM18,8H19V9H18zM20,8H21V9H20zM22,8H23V9H22zM24,8H25V9H24zM25,8H26V9H25zM26,8H27V9H26zM27,8H28V9H27zM28,8H29V9H28zM29,8H30V9H29zM30,8H31V9H30zM10,9H11V10H10zM11,9H12V10H11zM12,9H13V10H12zM17,9H18V10H17zM18,9H19V10H18zM19,9H20V10H19zM22,9H23V10H22zM2,10H3V11H2zM4,10H5V11H4zM5,10H6V11H5zM7,10H8V11H7zM8,10H9V11H8zM9,10H10V11H9zM11,10H12V11H11zM13,10H14V11H13zM14,10H15V11H14zM15,10H16V11H15zM17,10H18V11H17zM18,10H19V11H18zM19,10H20V11H19zM20,10H21V11H20zM21,10H22V11H21zM24,10H25V11H24zM27,10H28V11H27zM29,10H30V11H29zM30,10H31V11H30zM4,11H5V12H4zM5,11H6V12H5zM6,11H7V12H6zM9,11H10V12H9zM10,11H11V12H10zM13,11H14V12H13zM14,11H15V12H14zM15,11H16V12H15zM16,11H17V12H16zM18,11H19V12H18zM20,11H21V12H20zM21,11H22V12H21zM22,11H23V12H22zM23,11H24V12H23zM24,11H25V12H24zM25,11H26V12H25zM26,11H27V12H26zM30,11H31V12H30zM2,12H3V13H2zM5,12H6V13H5zM6,12H7V13H6zM8,12H9V13H8zM9,12H10V13H9zM13,12H14V13H13zM14,12H15V13H14zM15,12H16V13H15zM18,12H19V13H18zM19,12H20V13H19zM22,12H23V13H22zM23,12H24V13H23zM28,12H29V13H28zM29,12H30V13H29zM2,13H3V14H2zM9,13H10V14H9zM13,13H14V14H13zM18,13H19V14H18zM20,13H21V14H20zM22,13H23V14H22zM23,13H24V14H23zM26,13H27V14H26zM30,13H31V14H30zM2,14H3V15H2zM6,14H7V15H6zM8,14H9V15H8zM12,14H13V15H12zM13,14H14V15H13zM16,14H17V15H16zM19,14H20V15H19zM21,14H22V15H21zM27,14H28V15H27zM28,14H29V15H28zM4,15H5V16H4zM6,15H7V16H6zM7,15H8V16H7zM12,15H13V16H12zM16,15H17V16H16zM17,15H18V16H17zM18,15H19V16H18zM21,15H22V16H21zM24,15H25V16H24zM28,15H29V16H28zM29,15H30V16H29zM30,15H31V16H30zM2,16H3V17H2zM3,16H4V17H3zM4,16H5V17H4zM5,16H6V17H5zM6,16H7V17H6zM7,16H8V17H7zM8,16H9V17H8zM9,16H10V17H9zM10,16H11V17H10zM12,16H13V17H12zM13,16H14V17H13zM15,16H16V17H15zM18,16H19V17H18zM20,16H21V17H20zM21,16H22V17H21zM23,16H24V17H23zM28,16H29V17H28zM29,16H30V17H29zM30,16H31V17H30zM2,17H3V18H2zM4,17H5V18H4zM5,17H6V18H5zM6,17H7V18H6zM7,17H8V18H7zM9,17H10V18H9zM11,17H12V18H11zM12,17H13V18H12zM14,17H15V18H14zM16,17H17V18H16zM17,17H18V18H17zM18,17H19V18H18zM20,17H21V18H20zM21,17H22V18H21zM22,17H23V18H22zM23,17H24V18H23zM25,17H26V18H25zM29,17H30V18H29zM2,18H3V19H2zM6,18H7V19H6zM8,18H9V19H8zM11,18H12V19H11zM12,18H13V19H12zM16,18H17V19H16zM18,18H19V19H18zM21,18H22V19H21zM22,18H23V19H22zM23,18H24V19H23zM25,18H26V19H25zM26,18H27V19H26zM27,18H28V19H27zM29,18H30V19H29zM4,19H5V20H4zM5,19H6V20H5zM11,19H12V20H11zM16,19H17V20H16zM17,19H18V20H17zM19,19H20V20H19zM25,19H26V20H25zM27,19H28V20H27zM28,19H29V20H28zM29,19H30V20H29zM2,20H3V21H2zM8,20H9V21H8zM11,20H12V21H11zM14,20H15V21H14zM15,20H16V21H15zM16,20H17V21H16zM17,20H18V21H17zM18,20H19V21H18zM19,20H20V21H19zM24,20H25V21H24zM25,20H26V21H25zM28,20H29V21H28zM4,21H5V22H4zM5,21H6V22H5zM6,21H7V22H6zM15,21H16V22H15zM16,21H17V22H16zM19,21H20V22H19zM21,21H22V22H21zM22,21H23V22H22zM23,21H24V22H23zM24,21H25V22H24zM26,21H27V22H26zM28,21H29V22H28zM3,22H4V23H3zM5,22H6V23H5zM6,22H7V23H6zM7,22H8V23H7zM8,22H9V23H8zM11,22H12V23H11zM12,22H13V23H12zM14,22H15V23H14zM15,22H16V23H15zM16,22H17V23H16zM18,22H19V23H18zM19,22H20V23H19zM20,22H21V23H20zM21,22H22V23H21zM22,22H23V23H22zM23,22H24V23H23zM24,22H25V23H24zM25,22H26V23H25zM26,22H27V23H26zM27,22H28V23H27zM28,22H29V23H28zM10,23H11V24H10zM11,23H12V24H11zM14,23H15V24H14zM18,23H19V24H18zM20,23H21V24H20zM21,23H22V24H21zM22,23H23V24H22zM26,23H27V24H26zM27,23H28V24H27zM28,23H29V24H28zM29,23H30V24H29zM30,23H31V24H30zM2,24H3V25H2zM3,24H4V25H3zM4,24H5V25H4zM5,24H6V25H5zM6,24H7V25H6zM7,24H8V25H7zM8,24H9V25H8zM10,24H11V25H10zM13,24H14V25H13zM14,24H15V25H14zM16,24H17V25H16zM18,24H19V25H18zM19,24H20V25H19zM20,24H21V25H20zM21,24H22V25H21zM22,24H23V25H22zM24,24H25V25H24zM26,24H27V25H26zM27,24H28V25H27zM29,24H30V25H29zM2,25H3V26H2zM8,25H9V26H8zM10,25H11V26H10zM11,25H12V26H11zM14,25H15V26H14zM15,25H16V26H15zM16,25H17V26H16zM17,25H18V26H17zM18,25H19V26H18zM20,25H21V26H20zM22,25H23V26H22zM26,25H27V26H26zM27,25H28V26H27zM30,25H31V26H30zM2,26H3V27H2zM4,26H5V27H4zM5,26H6V27H5zM6,26H7V27H6zM8,26H9V27H8zM11,26H12V27H11zM12,26H13V27H12zM14,26H15V27H14zM17,26H18V27H17zM19,26H20V27H19zM22,26H23V27H22zM23,26H24V27H23zM24,26H25V27H24zM25,26H26V27H25zM26,26H27V27H26zM28,26H29V27H28zM2,27H3V28H2zM4,27H5V28H4zM5,27H6V28H5zM6,27H7V28H6zM8,27H9V28H8zM10,27H11V28H10zM11,27H12V28H11zM15,27H16V28H15zM17,27H18V28H17zM18,27H19V28H18zM19,27H20V28H19zM21,27H22V28H21zM22,27H23V28H22zM23,27H24V28H23zM25,27H26V28H25zM26,27H27V28H26zM27,27H28V28H27zM30,27H31V28H30zM2,28H3V29H2zM4,28H5V29H4zM5,28H6V29H5zM6,28H7V29H6zM8,28H9V29H8zM10,28H11V29H10zM12,28H13V29H12zM15,28H16V29H15zM16,28H17V29H16zM20,28H21V29H20zM21,28H22V29H21zM23,28H24V29H23zM25,28H26V29H25zM28,28H29V29H28zM30,28H31V29H30zM2,29H3V30H2zM8,29H9V30H8zM11,29H12V30H11zM12,29H13V30H12zM14,29H15V30H14zM17,29H18V30H17zM18,29H19V30H18zM20,29H21V30H20zM22,29H23V30H22zM26,29H27V30H26zM27,29H28V30H27zM29,29H30V30H29zM2,30H3V31H2zM3,30H4V31H3zM4,30H5V31H4zM5,30H6V31H5zM6,30H7V31H6zM7,30H8V31H7zM8,30H9V31H8zM10,30H11V31H10zM12,30H13V31H12zM13,30H14V31H13zM15,30H16V31H15zM18,30H19V31H18zM20,30H21V31H20zM21,30H22V31H21zM22,30H23V31H22zM25,30H26V31H25zM27,30H28V31H27zM29,30H30V31H29z" id="qr-path" fill="#000000" fill-opacity="1" fill-rule="nonzero" stroke="none"/></svg>